HIERARCHY
ROOT Hips
{
    OFFSET 0.000000 0.000000 0.000000
    CHANNELS 6 Xposition Yposition Zposition Zrotation Xrotation Yrotation
    JOINT Spine
    {
        OFFSET 0.000000 7.886464 -0.000001
        CHANNELS 3 Zrotation Xrotation Yrotation
        JOINT Spine1
        {
            OFFSET 0.000000 20.489058 0.000000
            CHANNELS 3 Zrotation Xrotation Yrotation
            JOINT Neck
            {
                OFFSET -0.000000 22.473160 0.000000
                CHANNELS 3 Zrotation Xrotation Yrotation
                JOINT Head
                {
                    OFFSET 0.000001 14.979940 1.928071
                    CHANNELS 3 Zrotation Xrotation Yrotation
                    End Site
                    {
                        OFFSET 0.000000 19.280720 0.000000
                    }
                }
            }
            JOINT LeftShoulder
            {
                OFFSET 3.844441 15.098611 -0.914976
                CHANNELS 3 Zrotation Xrotation Yrotation
                JOINT LeftArm
                {
                    OFFSET 14.878088 -0.000004 0.000000
                    CHANNELS 3 Zrotation Xrotation Yrotation
                    JOINT LeftForeArm
                    {
                        OFFSET 23.033365 -0.000001 -0.000003
                        CHANNELS 3 Zrotation Xrotation Yrotation
                        JOINT LeftHand
                        {
                            OFFSET 26.550747 0.000000 -0.000001
                            CHANNELS 3 Zrotation Xrotation Yrotation
                            JOINT LeftHandThumb1
                            {
                                OFFSET 2.014836 -2.289586 3.205416
                                CHANNELS 3 Zrotation Xrotation Yrotation
                                JOINT LeftHandThumb2
                                {
                                    OFFSET 3.043104 0.000003 -0.000001
                                    CHANNELS 3 Zrotation Xrotation Yrotation
                                    JOINT LeftHandThumb3
                                    {
                                        OFFSET 2.600965 0.000000 -0.000002
                                        CHANNELS 3 Zrotation Xrotation Yrotation
                                        End Site
                                        {
                                            OFFSET 2.507429 0.000000 0.000000
                                        }
                                    }
                                }
                            }
                            JOINT LeftHandIndex1
                            {
                                OFFSET 8.242503 0.000000 3.205419
                                CHANNELS 3 Zrotation Xrotation Yrotation
                                JOINT LeftHandIndex2
                                {
                                    OFFSET 4.579170 -0.000001 -0.000002
                                    CHANNELS 3 Zrotation Xrotation Yrotation
                                    JOINT LeftHandIndex3
                                    {
                                        OFFSET 2.289583 0.000001 -0.000000
                                        CHANNELS 3 Zrotation Xrotation Yrotation
                                        End Site
                                        {
                                            OFFSET 2.207237 0.000000 0.000000
                                        }
                                    }
                                }
                            }
                            JOINT LeftHandMiddle1
                            {
                                OFFSET 8.242503 0.000001 1.062368
                                CHANNELS 3 Zrotation Xrotation Yrotation
                                JOINT LeftHandMiddle2
                                {
                                    OFFSET 5.037087 -0.000003 0.000000
                                    CHANNELS 3 Zrotation Xrotation Yrotation
                                    JOINT LeftHandMiddle3
                                    {
                                        OFFSET 2.747499 0.000001 -0.000001
                                        CHANNELS 3 Zrotation Xrotation Yrotation
                                        End Site
                                        {
                                            OFFSET 2.648689 0.000000 0.000000
                                        }
                                    }
                                }
                            }
                            JOINT LeftHandRing1
                            {
                                OFFSET 7.784586 0.000000 -1.062368
                                CHANNELS 3 Zrotation Xrotation Yrotation
                                JOINT LeftHandRing2
                                {
                                    OFFSET 4.579170 -0.000001 -0.000002
                                    CHANNELS 3 Zrotation Xrotation Yrotation
                                    JOINT LeftHandRing3
                                    {
                                        OFFSET 2.289583 0.000001 0.000000
                                        CHANNELS 3 Zrotation Xrotation Yrotation
                                        End Site
                                        {
                                            OFFSET 2.207237 0.000000 0.000000
                                        }
                                    }
                                }
                            }
                            JOINT LeftHandPinky1
                            {
                                OFFSET 7.326668 0.000001 -3.205416
                                CHANNELS 3 Zrotation Xrotation Yrotation
                                JOINT LeftHandPinky2
                                {
                                    OFFSET 3.663335 -0.000001 0.000000
                                    CHANNELS 3 Zrotation Xrotation Yrotation
                                    JOINT LeftHandPinky3
                                    {
                                        OFFSET 1.831665 0.000001 0.000002
                                        CHANNELS 3 Zrotation Xrotation Yrotation
                                        End Site
                                        {
                                            OFFSET 1.765796 0.000000 0.000000
                                        }
                                    }
                                }
                            }
                        }
                    }
                }
            }
            JOINT RightShoulder
            {
                OFFSET -3.844440 15.098614 -0.914975
                CHANNELS 3 Zrotation Xrotation Yrotation
                JOINT RightArm
                {
                    OFFSET -14.878090 -0.000005 -0.000001
                    CHANNELS 3 Zrotation Xrotation Yrotation
                    JOINT RightForeArm
                    {
                        OFFSET -23.033379 0.000004 -0.000002
                        CHANNELS 3 Zrotation Xrotation Yrotation
                        JOINT RightHand
                        {
                            OFFSET -26.550747 0.000001 0.000000
                            CHANNELS 3 Zrotation Xrotation Yrotation
                            JOINT RightHandThumb1
                            {
                                OFFSET -2.014835 -2.289583 3.205420
                                CHANNELS 3 Zrotation Xrotation Yrotation
                                JOINT RightHandThumb2
                                {
                                    OFFSET -3.043108 -0.000000 -0.000002
                                    CHANNELS 3 Zrotation Xrotation Yrotation
                                    JOINT RightHandThumb3
                                    {
                                        OFFSET -2.600970 0.000001 -0.000001
                                        CHANNELS 3 Zrotation Xrotation Yrotation
                                        End Site
                                        {
                                            OFFSET -2.507429 0.000000 0.000000
                                        }
                                    }
                                }
                            }
                            JOINT RightHandIndex1
                            {
                                OFFSET -8.242503 0.000000 3.205418
                                CHANNELS 3 Zrotation Xrotation Yrotation
                                JOINT RightHandIndex2
                                {
                                    OFFSET -4.579170 -0.000001 -0.000001
                                    CHANNELS 3 Zrotation Xrotation Yrotation
                                    JOINT RightHandIndex3
                                    {
                                        OFFSET -2.289584 0.000004 -0.000000
                                        CHANNELS 3 Zrotation Xrotation Yrotation
                                        End Site
                                        {
                                            OFFSET -2.207237 0.000000 0.000000
                                        }
                                    }
                                }
                            }
                            JOINT RightHandMiddle1
                            {
                                OFFSET -8.242506 -0.000001 1.062368
                                CHANNELS 3 Zrotation Xrotation Yrotation
                                JOINT RightHandMiddle2
                                {
                                    OFFSET -5.037084 -0.000001 0.000000
                                    CHANNELS 3 Zrotation Xrotation Yrotation
                                    JOINT RightHandMiddle3
                                    {
                                        OFFSET -2.747503 0.000001 0.000001
                                        CHANNELS 3 Zrotation Xrotation Yrotation
                                        End Site
                                        {
                                            OFFSET -2.648689 0.000000 0.000000
                                        }
                                    }
                                }
                            }
                            JOINT RightHandRing1
                            {
                                OFFSET -7.784589 -0.000001 -1.062368
                                CHANNELS 3 Zrotation Xrotation Yrotation
                                JOINT RightHandRing2
                                {
                                    OFFSET -4.579170 -0.000001 -0.000001
                                    CHANNELS 3 Zrotation Xrotation Yrotation
                                    JOINT RightHandRing3
                                    {
                                        OFFSET -2.289584 0.000003 0.000001
                                        CHANNELS 3 Zrotation Xrotation Yrotation
                                        End Site
                                        {
                                            OFFSET -2.207237 0.000000 0.000000
                                        }
                                    }
                                }
                            }
                            JOINT RightHandPinky1
                            {
                                OFFSET -7.326672 0.000000 -3.205418
                                CHANNELS 3 Zrotation Xrotation Yrotation
                                JOINT RightHandPinky2
                                {
                                    OFFSET -3.663337 0.000000 -0.000001
                                    CHANNELS 3 Zrotation Xrotation Yrotation
                                    JOINT RightHandPinky3
                                    {
                                        OFFSET -1.831667 -0.000002 -0.000002
                                        CHANNELS 3 Zrotation Xrotation Yrotation
                                        End Site
                                        {
                                            OFFSET -1.765796 0.000000 0.000000
                                        }
                                    }
                                }
                            }
                        }
                    }
                }
            }
        }
    }
    JOINT LeftUpLeg
    {
        OFFSET 9.640355 -0.000001 0.000000
        CHANNELS 3 Zrotation Xrotation Yrotation
        JOINT LeftLeg
        {
            OFFSET 0.000000 -44.988789 0.000000
            CHANNELS 3 Zrotation Xrotation Yrotation
            JOINT LeftFoot
            {
                OFFSET 0.000002 -43.132160 -0.000001
                CHANNELS 3 Zrotation Xrotation Yrotation
                JOINT LeftToeBase
                {
                    OFFSET 0.000001 -6.266231 14.460537
                    CHANNELS 3 Zrotation Xrotation Yrotation
                    End Site
                    {
                        OFFSET 0.000000 0.000000 3.856144
                    }
                }
            }
        }
    }
    JOINT RightUpLeg
    {
        OFFSET -9.640355 0.000001 0.000000
        CHANNELS 3 Zrotation Xrotation Yrotation
        JOINT RightLeg
        {
            OFFSET -0.000001 -44.988789 -0.000000
            CHANNELS 3 Zrotation Xrotation Yrotation
            JOINT RightFoot
            {
                OFFSET 0.000001 -43.132156 -0.000001
                CHANNELS 3 Zrotation Xrotation Yrotation
                JOINT RightToeBase
                {
                    OFFSET 0.000001 -6.266231 14.460534
                    CHANNELS 3 Zrotation Xrotation Yrotation
                    End Site
                    {
                        OFFSET 0.000000 0.000000 3.856144
                    }
                }
            }
        }
    }
}
MOTION
Frames:    4
Frame Time:    0.002778
-5.388803    103.568443    10.759286    -4.443338    0.524419    90.002792    0.624959    -4.755385    1.440838    1.252701    -1.512365    1.422090    -0.093761    7.296181    3.669483    1.189625    1.994686    3.616165    -1.811235    0.000000    9.601748    -44.450035    23.810680    -4.290909    -28.463848    -63.488659    -31.209423    16.904251    -0.640051    0.387283    28.711113    36.270767    -42.795135    -22.867792    -4.684812    22.867785    -0.000000    0.000000    -0.000000    0.000010    18.000002    -0.000000    -0.000000    0.000000    -0.000000    -0.000000    0.000000    -0.000000    -0.000000    0.000000    -0.000000    -0.000000    0.000000    -0.000000    -0.000000    0.000000    -0.000000    -0.000000    0.000000    -0.000000    -0.000000    0.000000    -0.000000    -0.000000    0.000000    -0.000000    -0.000001    -18.000004    -0.000004    -0.000000    0.000000    -0.000000    -0.000000    0.000000    -0.000000    8.983576    0.000001    -10.579541    31.196342    13.361860    10.588112    -95.222275    -79.903900    -95.141853    2.060595    -0.908560    6.578043    -28.711109    36.270771    42.795135    22.867796    -4.684813    -22.867792    -0.000000    0.000000    -0.000000    -0.000008    18.000011    -0.000006    -0.000000    0.000000    -0.000000    -0.000000    0.000000    -0.000000    -0.000000    0.000000    -0.000000    -0.000000    0.000000    -0.000000    -0.000000    0.000000    -0.000000    -0.000000    0.000000    -0.000000    -0.000000    0.000000    -0.000000    -0.000000    0.000000    -0.000000    -0.000010    -17.999996    -0.000003    -0.000000    0.000000    -0.000000    -0.000000    0.000000    -0.000000    4.177343    -6.809519    4.110141    -0.000000    11.175392    -0.000001    -33.796806    14.441414    19.014124    0.000002    -5.152408    -0.000002    -2.993880    -6.834510    -3.491327    0.000000    10.540360    -0.000001    28.466713    20.893141    -3.563726    0.000001    -15.498652    -0.000007    
-5.423871    103.873512    10.775268    -4.481477    0.546683    89.988213    0.620117    -4.763954    1.436338    1.240760    -1.551004    1.418419    -0.095817    7.281213    3.694970    1.261482    2.281979    3.632586    -1.653671    0.000000    9.597027    -43.788746    23.772911    -4.715002    -27.816086    -63.576084    -30.504469    16.679960    -0.640111    0.178009    28.711107    36.270771    -42.795147    -22.867790    -4.684814    22.867800    -0.000000    0.000000    -0.000000    -0.000003    18.000013    0.000000    -0.000000    0.000000    -0.000000    -0.000000    0.000000    -0.000000    -0.000000    0.000000    -0.000000    -0.000000    0.000000    -0.000000    -0.000000    0.000000    -0.000000    -0.000000    0.000000    -0.000000    -0.000000    0.000000    -0.000000    -0.000000    0.000000    -0.000000    0.000000    -17.999996    0.000001    -0.000000    0.000000    -0.000000    -0.000000    0.000000    -0.000000    8.802179    0.000001    -10.522252    30.574181    13.087945    10.647171    -93.634003    -80.028748    -93.579254    2.004113    -0.905738    6.674404    -28.711100    36.270771    42.795132    22.867790    -4.684809    -22.867790    -0.000000    0.000000    -0.000000    0.000004    18.000008    -0.000004    -0.000000    0.000000    -0.000000    -0.000000    0.000000    -0.000000    -0.000000    0.000000    -0.000000    -0.000000    0.000000    -0.000000    -0.000000    0.000000    -0.000000    -0.000000    0.000000    -0.000000    -0.000000    0.000000    -0.000000    -0.000000    0.000000    -0.000000    0.000003    -17.999996    0.000000    -0.000000    0.000000    -0.000000    -0.000000    0.000000    -0.000000    4.390040    -6.735120    4.059834    0.000001    10.728683    -0.000009    -34.435070    15.419470    19.127420    0.000002    -4.514935    -0.000000    -3.165685    -6.752040    -3.488884    -0.000001    10.109754    -0.000001    28.292248    21.310503    -3.945322    0.000003    -15.110308    0.000011    
-5.458347    104.174545    10.797876    -4.516384    0.563888    89.973495    0.611177    -4.779812    1.426256    1.231167    -1.589489    1.409482    -0.085982    7.277636    3.705297    1.339272    2.583497    3.634026    -1.513988    0.000000    9.578341    -43.126266    23.731966    -5.129059    -27.061720    -63.675079    -29.682930    16.471096    -0.640018    -0.023574    28.711109    36.270756    -42.795124    -22.867790    -4.684818    22.867798    -0.000000    0.000000    -0.000000    -0.000000    17.999987    0.000003    -0.000000    0.000000    -0.000000    -0.000000    0.000000    -0.000000    -0.000000    0.000000    -0.000000    -0.000000    0.000000    -0.000000    -0.000000    0.000000    -0.000000    -0.000000    0.000000    -0.000000    -0.000000    0.000000    -0.000000    -0.000000    0.000000    -0.000000    -0.000001    -18.000008    -0.000004    -0.000000    0.000000    -0.000000    -0.000000    0.000000    -0.000000    8.620587    -0.000001    -10.439314    29.975832    12.834898    10.671695    -91.949997    -80.125778    -91.921135    1.987428    -0.902807    6.801054    -28.711109    36.270767    42.795124    22.867796    -4.684816    -22.867785    -0.000000    0.000000    -0.000000    -0.000007    18.000010    -0.000002    -0.000000    0.000000    -0.000000    -0.000000    0.000000    -0.000000    -0.000000    0.000000    -0.000000    -0.000000    0.000000    -0.000000    -0.000000    0.000000    -0.000000    -0.000000    0.000000    -0.000000    -0.000000    0.000000    -0.000000    -0.000000    0.000000    -0.000000    -0.000004    -18.000000    -0.000001    -0.000000    0.000000    -0.000000    -0.000000    0.000000    -0.000000    4.615582    -6.641555    3.990445    0.000001    10.310692    -0.000002    -34.773235    16.361643    19.077290    -0.000001    -3.835152    -0.000007    -3.323095    -6.684033    -3.523748    0.000001    9.749064    -0.000007    27.800442    21.590193    -4.215906    -0.000007    -14.489963    -0.000013    
-5.458347    104.174545    10.797876    -4.539119    0.574391    89.961540    0.618214    -4.784871    1.421788    1.230777    -1.619186    1.404997    -0.109421    7.302293    3.731831    1.413444    2.828030    3.648010    -1.318829    0.000048    9.550245    -42.497509    23.677982    -5.517973    -26.547527    -63.771412    -29.116154    16.305489    -0.640490    -0.164333    28.711103    36.270756    -42.795113    -22.867792    -4.684816    22.867792    -0.000000    0.000000    -0.000000    0.000001    17.999992    0.000008    -0.000000    0.000000    -0.000000    -0.000000    0.000000    -0.000000    -0.000000    0.000000    -0.000000    -0.000000    0.000000    -0.000000    -0.000000    0.000000    -0.000000    -0.000000    0.000000    -0.000000    -0.000000    0.000000    -0.000000    -0.000000    0.000000    -0.000000    0.000003    -18.000006    -0.000001    -0.000000    0.000000    -0.000000    -0.000000    0.000000    -0.000000    8.369875    0.000165    -10.363707    29.400480    12.671667    10.716949    -90.806259    -80.225853    -90.794395    2.030867    -0.900833    6.868869    -28.711113    36.270767    42.795135    22.867794    -4.684814    -22.867786    -0.000000    0.000000    -0.000000    -0.000003    18.000004    -0.000000    -0.000000    0.000000    -0.000000    -0.000000    0.000000    -0.000000    -0.000000    0.000000    -0.000000    -0.000000    0.000000    -0.000000    -0.000000    0.000000    -0.000000    -0.000000    0.000000    -0.000000    -0.000000    0.000000    -0.000000    -0.000000    0.000000    -0.000000    -0.000004    -18.000002    -0.000002    -0.000000    0.000000    -0.000000    -0.000000    0.000000    -0.000000    4.823510    -6.579028    3.879497    0.000000    9.995198    -0.000003    -34.644836    17.002104    18.883955    -0.000002    -3.387995    -0.000001    -3.488501    -6.634184    -3.571831    0.000001    9.476217    -0.000003    27.311071    21.686033    -4.375108    -0.000002    -13.996430    -0.000008    
